<svg width="13" height="43" viewBox="0 0 43 73" fill="none" xmlns="http://www.w3.org/2000/svg">
<path fill-rule="evenodd" clip-rule="evenodd" d="M4 0H0V58H4V54H8V50H12V46H16V54H20V62H24V70H28V73H36V70H40V62H36V54H32V46H28V43H43V39H40V35H36V31H32V27H28V23H24V19H20V15H16V11H12V7H8V3H4V0ZM8 7V11H12V15H16V19H20V23H24V27H28V31H32V35H36V39H24V46H28V54H32V62H36V70H28V62H24V54H20V46H16V42H12V46H8V50H4V7H8Z" fill="black"/>
<path fill-rule="evenodd" clip-rule="evenodd" d="M8 7V11H12V15H16V19H20V23H24V27H28V31H32V35H36V39H24V46H28V54H32V62H36V70H28V62H24V54H20V46H16V42H12V46H8V50H4V7H8Z" fill="#000"/>
<path d="M8 11V7H4V50H8V46H12V42H16V46H20V54H24V62H28V70H36V62H32V54H28V46H24V39H36V35H32V31H28V27H24V23H20V19H16V15H12V11H8Z" fill="#000"/>
</svg>
