<svg width="61" height="24" viewBox="0 0 61 24" fill="none" xmlns="http://www.w3.org/2000/svg">
<rect x="2.12175" y="0.665619" width="1.66562" height="1.66562" fill="black"/>
<rect x="0.456131" y="2.33124" width="1.66562" height="1.66562" fill="black"/>
<rect x="8.78426" y="0.665619" width="1.66562" height="1.66562" fill="black"/>
<rect x="2.12175" y="7.32812" width="1.66562" height="1.66562" fill="black"/>
<rect x="5.453" y="3.99689" width="1.66562" height="1.66562" fill="black"/>
<rect x="7.11862" y="2.33124" width="1.66562" height="1.66562" fill="black"/>
<rect x="0.456131" y="8.99374" width="1.66562" height="1.66562" fill="black"/>
<rect x="3.78738" y="5.66251" width="1.66562" height="1.66562" fill="black"/>
<rect x="15.4467" y="0.665619" width="1.66562" height="1.66562" fill="black"/>
<rect x="2.12175" y="13.9906" width="1.66562" height="1.66562" fill="black"/>
<rect x="8.78426" y="7.32812" width="1.66562" height="1.66562" fill="black"/>
<rect x="12.1155" y="3.99689" width="1.66562" height="1.66562" fill="black"/>
<rect x="5.453" y="10.6594" width="1.66562" height="1.66562" fill="black"/>
<rect x="13.7811" y="2.33124" width="1.66562" height="1.66562" fill="black"/>
<rect x="0.456131" y="15.6562" width="1.66562" height="1.66562" fill="black"/>
<rect x="7.11862" y="8.99374" width="1.66562" height="1.66562" fill="black"/>
<rect x="10.4499" y="5.66251" width="1.66562" height="1.66562" fill="black"/>
<rect x="3.78738" y="12.325" width="1.66562" height="1.66562" fill="black"/>
<rect x="22.1093" y="0.665619" width="1.66562" height="1.66562" fill="black"/>
<rect x="8.78426" y="13.9906" width="1.66562" height="1.66562" fill="black"/>
<rect x="15.4467" y="7.32812" width="1.66562" height="1.66562" fill="black"/>
<rect x="2.12175" y="20.6531" width="1.66562" height="1.66562" fill="black"/>
<rect x="18.778" y="3.99689" width="1.66562" height="1.66562" fill="black"/>
<rect x="5.453" y="17.3219" width="1.66562" height="1.66562" fill="black"/>
<rect x="12.1155" y="10.6594" width="1.66562" height="1.66562" fill="black"/>
<rect x="20.4436" y="2.33124" width="1.66562" height="1.66562" fill="black"/>
<rect x="7.11862" y="15.6562" width="1.66562" height="1.66562" fill="black"/>
<rect x="13.7811" y="8.99374" width="1.66562" height="1.66562" fill="black"/>
<rect x="0.456131" y="22.3188" width="1.66562" height="1.66562" fill="black"/>
<rect x="17.1124" y="5.66251" width="1.66562" height="1.66562" fill="black"/>
<rect x="3.78738" y="18.9875" width="1.66562" height="1.66562" fill="black"/>
<rect x="10.4499" y="12.325" width="1.66562" height="1.66562" fill="black"/>
<rect x="28.7717" y="0.665619" width="1.66562" height="1.66562" fill="black"/>
<rect x="15.4467" y="13.9906" width="1.66562" height="1.66562" fill="black"/>
<rect x="22.1092" y="7.32812" width="1.66562" height="1.66562" fill="black"/>
<rect x="8.78423" y="20.6531" width="1.66562" height="1.66562" fill="black"/>
<rect x="25.4405" y="3.99689" width="1.66562" height="1.66562" fill="black"/>
<rect x="12.1155" y="17.3219" width="1.66562" height="1.66562" fill="black"/>
<rect x="18.778" y="10.6594" width="1.66562" height="1.66562" fill="black"/>
<rect x="27.1061" y="2.33124" width="1.66562" height="1.66562" fill="black"/>
<rect x="13.7811" y="15.6562" width="1.66562" height="1.66562" fill="black"/>
<rect x="20.4436" y="8.99374" width="1.66562" height="1.66562" fill="black"/>
<rect x="7.11859" y="22.3188" width="1.66562" height="1.66562" fill="black"/>
<rect x="23.7748" y="5.66251" width="1.66562" height="1.66562" fill="black"/>
<rect x="10.4498" y="18.9875" width="1.66562" height="1.66562" fill="black"/>
<rect x="17.1124" y="12.325" width="1.66562" height="1.66562" fill="black"/>
<rect x="35.4342" y="0.665619" width="1.66562" height="1.66562" fill="black"/>
<rect x="22.1093" y="13.9906" width="1.66562" height="1.66562" fill="black"/>
<rect x="28.7718" y="7.32812" width="1.66562" height="1.66562" fill="black"/>
<rect x="15.4467" y="20.6531" width="1.66562" height="1.66562" fill="black"/>
<rect x="32.103" y="3.99689" width="1.66562" height="1.66562" fill="black"/>
<rect x="18.778" y="17.3219" width="1.66562" height="1.66562" fill="black"/>
<rect x="25.4405" y="10.6594" width="1.66562" height="1.66562" fill="black"/>
<rect x="33.7686" y="2.33124" width="1.66562" height="1.66562" fill="black"/>
<rect x="20.4436" y="15.6562" width="1.66562" height="1.66562" fill="black"/>
<rect x="27.1061" y="8.99374" width="1.66562" height="1.66562" fill="black"/>
<rect x="13.7811" y="22.3188" width="1.66562" height="1.66562" fill="black"/>
<rect x="30.4374" y="5.66251" width="1.66562" height="1.66562" fill="black"/>
<rect x="17.1124" y="18.9875" width="1.66562" height="1.66562" fill="black"/>
<rect x="23.7749" y="12.325" width="1.66562" height="1.66562" fill="black"/>
<rect x="42.0968" y="0.665619" width="1.66562" height="1.66562" fill="black"/>
<rect x="28.7718" y="13.9906" width="1.66562" height="1.66562" fill="black"/>
<rect x="35.4343" y="7.32812" width="1.66562" height="1.66562" fill="black"/>
<rect x="22.1093" y="20.6531" width="1.66562" height="1.66562" fill="black"/>
<rect x="38.7655" y="3.99689" width="1.66562" height="1.66562" fill="black"/>
<rect x="25.4405" y="17.3219" width="1.66562" height="1.66562" fill="black"/>
<rect x="32.103" y="10.6594" width="1.66562" height="1.66562" fill="black"/>
<rect x="40.4312" y="2.33124" width="1.66562" height="1.66562" fill="black"/>
<rect x="27.1062" y="15.6562" width="1.66562" height="1.66562" fill="black"/>
<rect x="33.7687" y="8.99374" width="1.66562" height="1.66562" fill="black"/>
<rect x="20.4437" y="22.3188" width="1.66562" height="1.66562" fill="black"/>
<rect x="37.0999" y="5.66251" width="1.66562" height="1.66562" fill="black"/>
<rect x="23.7749" y="18.9875" width="1.66562" height="1.66562" fill="black"/>
<rect x="30.4374" y="12.325" width="1.66562" height="1.66562" fill="black"/>
<rect x="48.7593" y="0.665619" width="1.66562" height="1.66562" fill="black"/>
<rect x="35.4343" y="13.9906" width="1.66562" height="1.66562" fill="black"/>
<rect x="42.0968" y="7.32812" width="1.66562" height="1.66562" fill="black"/>
<rect x="28.7718" y="20.6531" width="1.66562" height="1.66562" fill="black"/>
<rect x="45.4281" y="3.99689" width="1.66562" height="1.66562" fill="black"/>
<rect x="32.1031" y="17.3219" width="1.66562" height="1.66562" fill="black"/>
<rect x="38.7656" y="10.6594" width="1.66562" height="1.66562" fill="black"/>
<rect x="47.0937" y="2.33124" width="1.66562" height="1.66562" fill="black"/>
<rect x="33.7687" y="15.6562" width="1.66562" height="1.66562" fill="black"/>
<rect x="40.4312" y="8.99374" width="1.66562" height="1.66562" fill="black"/>
<rect x="27.1062" y="22.3188" width="1.66562" height="1.66562" fill="black"/>
<rect x="43.7625" y="5.66251" width="1.66562" height="1.66562" fill="black"/>
<rect x="30.4375" y="18.9875" width="1.66562" height="1.66562" fill="black"/>
<rect x="37.1" y="12.325" width="1.66562" height="1.66562" fill="black"/>
<rect x="55.4217" y="0.665619" width="1.66562" height="1.66562" fill="black"/>
<rect x="58.753" y="3.99689" width="1.66562" height="1.66562" fill="black"/>
<rect x="42.0967" y="13.9906" width="1.66562" height="1.66562" fill="black"/>
<rect x="48.7592" y="7.32812" width="1.66562" height="1.66562" fill="black"/>
<rect x="35.4342" y="20.6531" width="1.66562" height="1.66562" fill="black"/>
<rect x="52.0905" y="3.99689" width="1.66562" height="1.66562" fill="black"/>
<rect x="38.7655" y="17.3219" width="1.66562" height="1.66562" fill="black"/>
<rect x="45.428" y="10.6594" width="1.66562" height="1.66562" fill="black"/>
<rect x="53.7561" y="2.33124" width="1.66562" height="1.66562" fill="black"/>
<rect x="40.4311" y="15.6562" width="1.66562" height="1.66562" fill="black"/>
<rect x="47.0936" y="8.99374" width="1.66562" height="1.66562" fill="black"/>
<rect x="33.7686" y="22.3188" width="1.66562" height="1.66562" fill="black"/>
<rect x="50.4249" y="5.66251" width="1.66562" height="1.66562" fill="black"/>
<rect x="57.0874" y="5.66251" width="1.66562" height="1.66562" fill="black"/>
<rect x="37.0999" y="18.9875" width="1.66562" height="1.66562" fill="black"/>
<rect x="43.7624" y="12.325" width="1.66562" height="1.66562" fill="black"/>
<rect x="48.7592" y="13.9906" width="1.66562" height="1.66562" fill="black"/>
<rect x="55.4218" y="7.32812" width="1.66562" height="1.66562" fill="black"/>
<rect x="58.753" y="10.6594" width="1.66562" height="1.66562" fill="black"/>
<rect x="42.0968" y="20.6531" width="1.66562" height="1.66562" fill="black"/>
<rect x="45.428" y="17.3219" width="1.66562" height="1.66562" fill="black"/>
<rect x="52.0905" y="10.6594" width="1.66562" height="1.66562" fill="black"/>
<rect x="47.0936" y="15.6562" width="1.66562" height="1.66562" fill="black"/>
<rect x="53.7561" y="8.99374" width="1.66562" height="1.66562" fill="black"/>
<rect x="40.4311" y="22.3188" width="1.66562" height="1.66562" fill="black"/>
<rect x="43.7624" y="18.9875" width="1.66562" height="1.66562" fill="black"/>
<rect x="50.4249" y="12.325" width="1.66562" height="1.66562" fill="black"/>
<rect x="57.0874" y="12.325" width="1.66562" height="1.66562" fill="black"/>
<rect x="55.4218" y="13.9906" width="1.66562" height="1.66562" fill="black"/>
<rect x="58.753" y="17.3219" width="1.66562" height="1.66562" fill="black"/>
<rect x="48.7593" y="20.6531" width="1.66562" height="1.66562" fill="black"/>
<rect x="52.0905" y="17.3219" width="1.66562" height="1.66562" fill="black"/>
<rect x="53.7562" y="15.6562" width="1.66562" height="1.66562" fill="black"/>
<rect x="47.0937" y="22.3188" width="1.66562" height="1.66562" fill="black"/>
<rect x="50.4249" y="18.9875" width="1.66562" height="1.66562" fill="black"/>
<rect x="57.0874" y="18.9875" width="1.66562" height="1.66562" fill="black"/>
<rect x="55.4218" y="20.6531" width="1.66562" height="1.66562" fill="black"/>
<rect x="53.7562" y="22.3188" width="1.66562" height="1.66562" fill="black"/>
<rect width="1.66562" height="1.66562" transform="matrix(-1 0 0 1 17.1124 0.665619)" fill="black"/>
<rect width="1.66562" height="1.66562" transform="matrix(-1 0 0 1 30.4374 13.9906)" fill="black"/>
<rect width="1.66562" height="1.66562" transform="matrix(-1 0 0 1 23.7749 7.32812)" fill="black"/>
<rect width="1.66562" height="1.66562" transform="matrix(-1 0 0 1 37.0999 20.6531)" fill="black"/>
<rect width="1.66562" height="1.66562" transform="matrix(-1 0 0 1 20.4436 3.99689)" fill="black"/>
<rect width="1.66562" height="1.66562" transform="matrix(-1 0 0 1 33.7686 17.3219)" fill="black"/>
<rect width="1.66562" height="1.66562" transform="matrix(-1 0 0 1 27.1061 10.6594)" fill="black"/>
<rect width="1.66562" height="1.66562" transform="matrix(-1 0 0 1 18.778 2.33124)" fill="black"/>
<rect width="1.66562" height="1.66562" transform="matrix(-1 0 0 1 32.103 15.6562)" fill="black"/>
<rect width="1.66562" height="1.66562" transform="matrix(-1 0 0 1 25.4405 8.99374)" fill="black"/>
<rect width="1.66562" height="1.66562" transform="matrix(-1 0 0 1 38.7655 22.3188)" fill="black"/>
<rect width="1.66562" height="1.66562" transform="matrix(-1 0 0 1 22.1093 5.66251)" fill="black"/>
<rect width="1.66562" height="1.66562" transform="matrix(-1 0 0 1 35.4342 18.9875)" fill="black"/>
<rect width="1.66562" height="1.66562" transform="matrix(-1 0 0 1 28.7718 12.325)" fill="black"/>
<rect width="1.66562" height="1.66562" transform="matrix(-1 0 0 1 10.4498 0.665619)" fill="black"/>
<rect width="1.66562" height="1.66562" transform="matrix(-1 0 0 1 23.7748 13.9906)" fill="black"/>
<rect width="1.66562" height="1.66562" transform="matrix(-1 0 0 1 17.1124 7.32812)" fill="black"/>
<rect width="1.66562" height="1.66562" transform="matrix(-1 0 0 1 30.4373 20.6531)" fill="black"/>
<rect width="1.66562" height="1.66562" transform="matrix(-1 0 0 1 13.7811 3.99689)" fill="black"/>
<rect width="1.66562" height="1.66562" transform="matrix(-1 0 0 1 27.1061 17.3219)" fill="black"/>
<rect width="1.66562" height="1.66562" transform="matrix(-1 0 0 1 20.4436 10.6594)" fill="black"/>
<rect width="1.66562" height="1.66562" transform="matrix(-1 0 0 1 12.1155 2.33124)" fill="black"/>
<rect width="1.66562" height="1.66562" transform="matrix(-1 0 0 1 25.4405 15.6562)" fill="black"/>
<rect width="1.66562" height="1.66562" transform="matrix(-1 0 0 1 18.778 8.99374)" fill="black"/>
<rect width="1.66562" height="1.66562" transform="matrix(-1 0 0 1 32.103 22.3188)" fill="black"/>
<rect width="1.66562" height="1.66562" transform="matrix(-1 0 0 1 15.4467 5.66251)" fill="black"/>
<rect width="1.66562" height="1.66562" transform="matrix(-1 0 0 1 28.7717 18.9875)" fill="black"/>
<rect width="1.66562" height="1.66562" transform="matrix(-1 0 0 1 22.1092 12.325)" fill="black"/>
<rect width="1.66562" height="1.66562" transform="matrix(-1 0 0 1 3.78734 0.665619)" fill="black"/>
<rect width="1.66562" height="1.66562" transform="matrix(-1 0 0 1 17.1123 13.9906)" fill="black"/>
<rect width="1.66562" height="1.66562" transform="matrix(-1 0 0 1 10.4498 7.32812)" fill="black"/>
<rect width="1.66562" height="1.66562" transform="matrix(-1 0 0 1 23.7748 20.6531)" fill="black"/>
<rect width="1.66562" height="1.66562" transform="matrix(-1 0 0 1 7.11858 3.99689)" fill="black"/>
<rect width="1.66562" height="1.66562" transform="matrix(-1 0 0 1 20.4436 17.3219)" fill="black"/>
<rect width="1.66562" height="1.66562" transform="matrix(-1 0 0 1 13.7811 10.6594)" fill="black"/>
<rect width="1.66562" height="1.66562" transform="matrix(-1 0 0 1 5.45296 2.33124)" fill="black"/>
<rect width="1.66562" height="1.66562" transform="matrix(-1 0 0 1 18.778 15.6562)" fill="black"/>
<rect width="1.66562" height="1.66562" transform="matrix(-1 0 0 1 12.1155 8.99374)" fill="black"/>
<rect width="1.66562" height="1.66562" transform="matrix(-1 0 0 1 25.4405 22.3188)" fill="black"/>
<rect width="1.66562" height="1.66562" transform="matrix(-1 0 0 1 8.78421 5.66251)" fill="black"/>
<rect width="1.66562" height="1.66562" transform="matrix(-1 0 0 1 22.1092 18.9875)" fill="black"/>
<rect width="1.66562" height="1.66562" transform="matrix(-1 0 0 1 15.4467 12.325)" fill="black"/>
<rect width="1.66562" height="1.66562" transform="matrix(-1 0 0 1 10.4499 13.9906)" fill="black"/>
<rect width="1.66562" height="1.66562" transform="matrix(-1 0 0 1 3.78743 7.32812)" fill="black"/>
<rect width="1.66562" height="1.66562" transform="matrix(-1 0 0 1 17.1124 20.6531)" fill="black"/>
<rect width="1.66562" height="1.66562" transform="matrix(-1 0 0 1 13.7812 17.3219)" fill="black"/>
<rect width="1.66562" height="1.66562" transform="matrix(-1 0 0 1 7.11867 10.6594)" fill="black"/>
<rect width="1.66562" height="1.66562" transform="matrix(-1 0 0 1 12.1156 15.6562)" fill="black"/>
<rect width="1.66562" height="1.66562" transform="matrix(-1 0 0 1 5.45305 8.99374)" fill="black"/>
<rect width="1.66562" height="1.66562" transform="matrix(-1 0 0 1 18.778 22.3188)" fill="black"/>
<rect width="1.66562" height="1.66562" transform="matrix(-1 0 0 1 2.1218 5.66251)" fill="black"/>
<rect width="1.66562" height="1.66562" transform="matrix(-1 0 0 1 15.4468 18.9875)" fill="black"/>
<rect width="1.66562" height="1.66562" transform="matrix(-1 0 0 1 8.7843 12.325)" fill="black"/>
<rect width="1.66562" height="1.66562" transform="matrix(-1 0 0 1 3.78741 13.9906)" fill="black"/>
<rect width="1.66562" height="1.66562" transform="matrix(-1 0 0 1 10.4499 20.6531)" fill="black"/>
<rect width="1.66562" height="1.66562" transform="matrix(-1 0 0 1 7.11865 17.3219)" fill="black"/>
<rect width="1.66562" height="1.66562" transform="matrix(-1 0 0 1 5.45303 15.6562)" fill="black"/>
<rect width="1.66562" height="1.66562" transform="matrix(-1 0 0 1 12.1155 22.3188)" fill="black"/>
<rect width="1.66562" height="1.66562" transform="matrix(-1 0 0 1 8.78429 18.9875)" fill="black"/>
<rect width="1.66562" height="1.66562" transform="matrix(-1 0 0 1 2.12178 12.325)" fill="black"/>
<rect width="1.66562" height="1.66562" transform="matrix(-1 0 0 1 3.78738 20.6531)" fill="black"/>
<rect width="1.66562" height="1.66562" transform="matrix(-1 0 0 1 5.453 22.3188)" fill="black"/>
<rect width="1.66562" height="1.66562" transform="matrix(-1 0 0 1 2.12175 18.9875)" fill="black"/>
<rect width="1.66562" height="1.66562" transform="matrix(-1 0 0 1 57.0874 0.665619)" fill="black"/>
<rect width="1.66562" height="1.66562" transform="matrix(-1 0 0 1 60.4187 3.99689)" fill="black"/>
<rect width="1.66562" height="1.66562" transform="matrix(-1 0 0 1 50.4249 0.665619)" fill="black"/>
<rect width="1.66562" height="1.66562" transform="matrix(-1 0 0 1 57.0874 7.32812)" fill="black"/>
<rect width="1.66562" height="1.66562" transform="matrix(-1 0 0 1 60.4187 10.6594)" fill="black"/>
<rect width="1.66562" height="1.66562" transform="matrix(-1 0 0 1 53.7562 3.99689)" fill="black"/>
<rect width="1.66562" height="1.66562" transform="matrix(-1 0 0 1 52.0905 2.33124)" fill="black"/>
<rect width="1.66562" height="1.66562" transform="matrix(-1 0 0 1 58.7531 2.33124)" fill="black"/>
<rect width="1.66562" height="1.66562" transform="matrix(-1 0 0 1 55.4218 5.66251)" fill="black"/>
<rect width="1.66562" height="1.66562" transform="matrix(-1 0 0 1 43.7624 0.665619)" fill="black"/>
<rect width="1.66562" height="1.66562" transform="matrix(-1 0 0 1 57.0874 13.9906)" fill="black"/>
<rect width="1.66562" height="1.66562" transform="matrix(-1 0 0 1 60.4187 17.3219)" fill="black"/>
<rect width="1.66562" height="1.66562" transform="matrix(-1 0 0 1 50.4249 7.32812)" fill="black"/>
<rect width="1.66562" height="1.66562" transform="matrix(-1 0 0 1 47.0937 3.99689)" fill="black"/>
<rect width="1.66562" height="1.66562" transform="matrix(-1 0 0 1 53.7562 10.6594)" fill="black"/>
<rect width="1.66562" height="1.66562" transform="matrix(-1 0 0 1 45.4281 2.33124)" fill="black"/>
<rect width="1.66562" height="1.66562" transform="matrix(-1 0 0 1 52.0905 8.99374)" fill="black"/>
<rect width="1.66562" height="1.66562" transform="matrix(-1 0 0 1 58.7531 8.99374)" fill="black"/>
<rect width="1.66562" height="1.66562" transform="matrix(-1 0 0 1 48.7593 5.66251)" fill="black"/>
<rect width="1.66562" height="1.66562" transform="matrix(-1 0 0 1 55.4218 12.325)" fill="black"/>
<rect width="1.66562" height="1.66562" transform="matrix(-1 0 0 1 37.0999 0.665619)" fill="black"/>
<rect width="1.66562" height="1.66562" transform="matrix(-1 0 0 1 50.4249 13.9906)" fill="black"/>
<rect width="1.66562" height="1.66562" transform="matrix(-1 0 0 1 43.7624 7.32812)" fill="black"/>
<rect width="1.66562" height="1.66562" transform="matrix(-1 0 0 1 57.0874 20.6531)" fill="black"/>
<rect width="1.66562" height="1.66562" transform="matrix(-1 0 0 1 40.4311 3.99689)" fill="black"/>
<rect width="1.66562" height="1.66562" transform="matrix(-1 0 0 1 53.7561 17.3219)" fill="black"/>
<rect width="1.66562" height="1.66562" transform="matrix(-1 0 0 1 47.0936 10.6594)" fill="black"/>
<rect width="1.66562" height="1.66562" transform="matrix(-1 0 0 1 38.7655 2.33124)" fill="black"/>
<rect width="1.66562" height="1.66562" transform="matrix(-1 0 0 1 52.0905 15.6562)" fill="black"/>
<rect width="1.66562" height="1.66562" transform="matrix(-1 0 0 1 58.753 15.6562)" fill="black"/>
<rect width="1.66562" height="1.66562" transform="matrix(-1 0 0 1 45.428 8.99374)" fill="black"/>
<rect width="1.66562" height="1.66562" transform="matrix(-1 0 0 1 42.0968 5.66251)" fill="black"/>
<rect width="1.66562" height="1.66562" transform="matrix(-1 0 0 1 55.4218 18.9875)" fill="black"/>
<rect width="1.66562" height="1.66562" transform="matrix(-1 0 0 1 48.7592 12.325)" fill="black"/>
<rect width="1.66562" height="1.66562" transform="matrix(-1 0 0 1 30.4374 0.665619)" fill="black"/>
<rect width="1.66562" height="1.66562" transform="matrix(-1 0 0 1 43.7624 13.9906)" fill="black"/>
<rect width="1.66562" height="1.66562" transform="matrix(-1 0 0 1 37.0999 7.32812)" fill="black"/>
<rect width="1.66562" height="1.66562" transform="matrix(-1 0 0 1 50.4249 20.6531)" fill="black"/>
<rect width="1.66562" height="1.66562" transform="matrix(-1 0 0 1 33.7686 3.99689)" fill="black"/>
<rect width="1.66562" height="1.66562" transform="matrix(-1 0 0 1 47.0936 17.3219)" fill="black"/>
<rect width="1.66562" height="1.66562" transform="matrix(-1 0 0 1 40.4311 10.6594)" fill="black"/>
<rect width="1.66562" height="1.66562" transform="matrix(-1 0 0 1 32.103 2.33124)" fill="black"/>
<rect width="1.66562" height="1.66562" transform="matrix(-1 0 0 1 45.428 15.6562)" fill="black"/>
<rect width="1.66562" height="1.66562" transform="matrix(-1 0 0 1 38.7655 8.99374)" fill="black"/>
<rect width="1.66562" height="1.66562" transform="matrix(-1 0 0 1 52.0905 22.3188)" fill="black"/>
<rect width="1.66562" height="1.66562" transform="matrix(-1 0 0 1 58.753 22.3188)" fill="black"/>
<rect width="1.66562" height="1.66562" transform="matrix(-1 0 0 1 35.4342 5.66251)" fill="black"/>
<rect width="1.66562" height="1.66562" transform="matrix(-1 0 0 1 48.7592 18.9875)" fill="black"/>
<rect width="1.66562" height="1.66562" transform="matrix(-1 0 0 1 42.0968 12.325)" fill="black"/>
<rect width="1.66562" height="1.66562" transform="matrix(-1 0 0 1 23.7749 0.665619)" fill="black"/>
<rect width="1.66562" height="1.66562" transform="matrix(-1 0 0 1 37.1 13.9906)" fill="black"/>
<rect width="1.66562" height="1.66562" transform="matrix(-1 0 0 1 30.4375 7.32812)" fill="black"/>
<rect width="1.66562" height="1.66562" transform="matrix(-1 0 0 1 43.7625 20.6531)" fill="black"/>
<rect width="1.66562" height="1.66562" transform="matrix(-1 0 0 1 27.1062 3.99689)" fill="black"/>
<rect width="1.66562" height="1.66562" transform="matrix(-1 0 0 1 40.4312 17.3219)" fill="black"/>
<rect width="1.66562" height="1.66562" transform="matrix(-1 0 0 1 33.7687 10.6594)" fill="black"/>
<rect width="1.66562" height="1.66562" transform="matrix(-1 0 0 1 25.4406 2.33124)" fill="black"/>
<rect width="1.66562" height="1.66562" transform="matrix(-1 0 0 1 38.7656 15.6562)" fill="black"/>
<rect width="1.66562" height="1.66562" transform="matrix(-1 0 0 1 32.1031 8.99374)" fill="black"/>
<rect width="1.66562" height="1.66562" transform="matrix(-1 0 0 1 45.4281 22.3188)" fill="black"/>
<rect width="1.66562" height="1.66562" transform="matrix(-1 0 0 1 28.7718 5.66251)" fill="black"/>
<rect width="1.66562" height="1.66562" transform="matrix(-1 0 0 1 42.0968 18.9875)" fill="black"/>
<rect width="1.66562" height="1.66562" transform="matrix(-1 0 0 1 35.4343 12.325)" fill="black"/>
</svg>
